<svg width="16" height="11" viewBox="0 0 16 11" fill="none" xmlns="http://www.w3.org/2000/svg">
<path d="M14.4375 0.5C15.1484 0.5 15.75 1.10156 15.75 1.8125V9.6875C15.75 10.4258 15.1484 11 14.4375 11H1.3125C0.574219 11 0 10.4258 0 9.6875V1.8125C0 1.10156 0.574219 0.5 1.3125 0.5H14.4375ZM4.78516 3.125C4.32031 3.125 3.91016 3.53516 3.91016 4C3.91016 4.49219 4.29297 4.875 4.78516 4.875C5.25 4.875 5.66016 4.49219 5.66016 4C5.66016 3.53516 5.25 3.125 4.78516 3.125ZM12.1953 9.03125C12.25 8.89453 12.25 8.70312 12.168 8.59375L9.24219 4.21875C9.16016 4.08203 9.02344 4 8.88672 4C8.72266 4 8.58594 4.08203 8.50391 4.21875L6.78125 6.78906L6.17969 5.94141C6.09766 5.83203 5.96094 5.75 5.82422 5.75C5.6875 5.75 5.57812 5.83203 5.49609 5.94141L3.58203 8.56641C3.47266 8.70312 3.47266 8.86719 3.52734 9.03125C3.60938 9.16797 3.74609 9.25 3.9375 9.25H11.8125C11.9492 9.25 12.1133 9.16797 12.1953 9.03125Z" fill="black"/>
</svg>
