<svg width="13" height="13" viewBox="0 0 13 13" fill="none" xmlns="http://www.w3.org/2000/svg">
<path d="M7.64966 1.875H1.52466C1.03247 1.875 0.649658 1.49219 0.649658 1C0.649658 0.535156 1.03247 0.125 1.52466 0.125H7.64966C8.1145 0.125 8.52466 0.535156 8.52466 1C8.52466 1.49219 8.1145 1.875 7.64966 1.875ZM7.64966 8.875H1.52466C1.03247 8.875 0.649658 8.49219 0.649658 8C0.649658 7.53516 1.03247 7.125 1.52466 7.125H7.64966C8.1145 7.125 8.52466 7.53516 8.52466 8C8.52466 8.49219 8.1145 8.875 7.64966 8.875ZM0.649658 4.5C0.649658 4.03516 1.03247 3.625 1.52466 3.625H12.0247C12.4895 3.625 12.8997 4.03516 12.8997 4.5C12.8997 4.99219 12.4895 5.375 12.0247 5.375H1.52466C1.03247 5.375 0.649658 4.99219 0.649658 4.5ZM12.0247 12.375H1.52466C1.03247 12.375 0.649658 11.9922 0.649658 11.5C0.649658 11.0352 1.03247 10.625 1.52466 10.625H12.0247C12.4895 10.625 12.8997 11.0352 12.8997 11.5C12.8997 11.9922 12.4895 12.375 12.0247 12.375Z" fill="black"/>
</svg>
