<svg width="13" height="12" viewBox="0 0 13 12" fill="none" xmlns="http://www.w3.org/2000/svg">
<path d="M12.0142 6.87891L7.63916 11.2539C7.4751 11.418 7.25635 11.5 7.0376 11.5C6.7915 11.5 6.57275 11.418 6.40869 11.2539C6.05322 10.9258 6.05322 10.3516 6.40869 10.0234L9.27979 7.125H0.912598C0.42041 7.125 0.0375977 6.74219 0.0375977 6.25C0.0375977 5.78516 0.42041 5.375 0.912598 5.375H9.27979L6.40869 2.50391C6.05322 2.17578 6.05322 1.60156 6.40869 1.27344C6.73682 0.917969 7.31104 0.917969 7.63916 1.27344L12.0142 5.64844C12.3696 5.97656 12.3696 6.55078 12.0142 6.87891Z" fill="#31332F"/>
</svg>
